<svg width="118" height="118" viewBox="0 0 118 118" fill="none" xmlns="http://www.w3.org/2000/svg">
<path id="Ellipse 5" d="M46.8127 2.47971C46.6752 1.84217 46.0463 1.43564 45.4117 1.58583C31.049 4.98478 18.4655 13.6496 10.1666 25.8894C1.64652 38.4553 -1.70161 53.822 0.818528 68.7934C3.33867 83.7649 11.5331 97.1886 23.6975 106.273C35.8619 115.357 51.06 119.402 66.1307 117.567C81.2015 115.732 94.9849 108.159 104.614 96.4209C114.244 84.6833 118.978 69.6855 117.832 54.5468C116.686 39.408 109.748 25.2937 98.462 15.1392C87.4687 5.2483 73.1736 -0.144002 58.415 0.00264323C57.7628 0.00912333 57.2499 0.554667 57.2694 1.20658C57.2889 1.85849 57.8335 2.36985 58.4856 2.36391C72.6367 2.2351 86.3408 7.41058 96.8823 16.895C107.717 26.6429 114.377 40.1923 115.477 54.725C116.577 69.2578 112.032 83.6552 102.788 94.9229C93.5444 106.191 80.3128 113.461 65.8453 115.223C51.3778 116.984 36.7882 113.101 25.1107 104.38C13.4332 95.6599 5.56685 82.7735 3.14759 68.4014C0.728337 54.0293 3.94244 39.2777 12.1214 27.2148C20.0793 15.4781 32.1411 7.16554 45.9097 3.89507C46.5442 3.74434 46.9501 3.11726 46.8127 2.47971Z" fill="#D1B06B"/>
</svg>
