<svg width="118" height="118" viewBox="0 0 118 118" fill="none" xmlns="http://www.w3.org/2000/svg">
<path id="Ellipse 5" d="M21.4055 15.0717C20.9814 14.5761 20.235 14.5174 19.7481 14.9513C9.61658 23.9792 2.89715 36.2344 0.74444 49.6571C-1.47067 63.4689 1.29363 77.6185 8.5441 89.5811C15.7946 101.544 27.0595 110.541 40.3289 114.968C53.5983 119.394 68.0089 118.963 80.9894 113.749C93.9698 108.536 104.676 98.8798 111.197 86.5045C117.718 74.1291 119.63 59.8394 116.591 46.1851C113.553 32.5307 105.762 20.4 94.609 11.9575C83.7698 3.75275 70.4403 -0.449927 56.8789 0.0381309C56.2271 0.0615876 55.7287 0.620296 55.7652 1.27148C55.8017 1.92266 56.3592 2.41967 57.011 2.39676C70.0133 1.93967 82.7909 5.97387 93.1835 13.8406C103.89 21.9452 111.369 33.5903 114.286 46.6981C117.203 59.8058 115.367 73.5235 109.107 85.4035C102.847 97.2834 92.57 106.553 80.1091 111.557C67.6483 116.562 53.8145 116.977 41.0763 112.727C28.3381 108.478 17.5241 99.8406 10.5639 88.3569C3.60368 76.8732 0.950036 63.29 3.07647 50.0311C5.14051 37.1613 11.5779 25.4096 21.2841 16.7461C21.7707 16.3118 21.8296 15.5672 21.4055 15.0717Z" fill="#D1B06B"/>
</svg>
