<svg width="33" height="34" viewBox="0 0 33 34" fill="none" xmlns="http://www.w3.org/2000/svg">
<g id="Icon">
<path id="Rectangle 226" d="M1.59324 33L5.02795 9H27.8519L31.2866 33H1.59324Z" stroke="white" stroke-width="2"/>
<g id="Subtract">
<mask id="path-2-inside-1_2_2725" fill="white">
<path fill-rule="evenodd" clip-rule="evenodd" d="M16.4398 0C12.3855 0 9.09888 3.28664 9.09888 7.34092V10.0456H23.7807V7.34091C23.7807 3.28664 20.4941 0 16.4398 0Z"/>
</mask>
<path d="M9.09888 10.0456H7.09888V12.0456H9.09888V10.0456ZM23.7807 10.0456V12.0456H25.7807V10.0456H23.7807ZM11.0989 7.34092C11.0989 4.39121 13.4901 2 16.4398 2V-2C11.2809 -2 7.09888 2.18208 7.09888 7.34092H11.0989ZM11.0989 10.0456V7.34092H7.09888V10.0456H11.0989ZM9.09888 12.0456H23.7807V8.04561H9.09888V12.0456ZM21.7807 7.34091V10.0456H25.7807V7.34091H21.7807ZM16.4398 2C19.3895 2 21.7807 4.39121 21.7807 7.34091H25.7807C25.7807 2.18207 21.5986 -2 16.4398 -2V2Z" fill="white" mask="url(#path-2-inside-1_2_2725)"/>
</g>
</g>
</svg>
